<svg width="16" height="14" viewBox="0 0 16 14" fill="none" xmlns="http://www.w3.org/2000/svg">
<path fill-rule="evenodd" clip-rule="evenodd" d="M15.8149 2.06289C15.2485 2.31185 14.6437 2.48145 14.0069 2.55889C14.6559 2.16785 15.1551 1.55153 15.3913 0.816172C14.7826 1.17137 14.1081 1.42993 13.39 1.57393C12.8165 0.960172 11.9993 0.576172 11.0917 0.576172C9.35285 0.576172 7.94293 1.98609 7.94293 3.72305C7.94293 3.97265 7.97174 4.21265 8.02422 4.44241C5.40662 4.31889 3.08662 3.06193 1.53398 1.16177C1.26069 1.62385 1.10773 2.16081 1.10773 2.74577C1.10773 3.84017 1.66454 4.80209 2.50805 5.36721C1.99158 5.35057 1.50582 5.20849 1.08214 4.97297V5.01201C1.08214 6.53841 2.16565 7.81137 3.60757 8.10129C3.34326 8.17233 3.06422 8.21073 2.77814 8.21073C2.57718 8.21073 2.38454 8.19153 2.1919 8.15569C2.59574 9.40561 3.75669 10.317 5.13845 10.3426C4.06325 11.1867 2.7007 11.6898 1.23317 11.6898C0.983575 11.6898 0.734615 11.6751 0.484375 11.6469C1.88533 12.5391 3.5359 13.0607 5.32086 13.0607C11.1154 13.0607 14.2802 8.26321 14.2802 4.10961C14.2802 3.97585 14.2802 3.84081 14.2706 3.70641C14.8857 3.26545 15.4226 2.70801 15.845 2.07569L15.8149 2.06289Z" fill="white"/>
</svg>
